<?xml version="1.0" encoding="UTF-8" standalone="no"?>
<svg
   xmlns:dc="http://purl.org/dc/elements/1.1/"
   xmlns:cc="http://creativecommons.org/ns#"
   xmlns:rdf="http://www.w3.org/1999/02/22-rdf-syntax-ns#"
   xmlns:svg="http://www.w3.org/2000/svg"
   xmlns="http://www.w3.org/2000/svg"
   xmlns:sodipodi="http://sodipodi.sourceforge.net/DTD/sodipodi-0.dtd"
   xmlns:inkscape="http://www.inkscape.org/namespaces/inkscape"
   width="29"
   height="29"
   viewBox="0 0 29 29"
   version="1.1"
   id="svg4"
   sodipodi:docname="export.svg"
   inkscape:version="0.92.2 (5c3e80d, 2017-08-06)">
  <metadata
     id="metadata10">
    <rdf:RDF>
      <cc:Work
         rdf:about="">
        <dc:format>image/svg+xml</dc:format>
        <dc:type
           rdf:resource="http://purl.org/dc/dcmitype/StillImage" />
        <dc:title />
      </cc:Work>
    </rdf:RDF>
  </metadata>
  <defs
     id="defs8" />
  <sodipodi:namedview
     pagecolor="#ffffff"
     bordercolor="#666666"
     borderopacity="1"
     objecttolerance="10"
     gridtolerance="10"
     guidetolerance="10"
     inkscape:pageopacity="0"
     inkscape:pageshadow="2"
     inkscape:window-width="1543"
     inkscape:window-height="930"
     id="namedview6"
     showgrid="true"
     inkscape:snap-page="true"
     inkscape:snap-text-baseline="true"
     inkscape:snap-object-midpoints="true"
     inkscape:snap-center="true"
     inkscape:snap-midpoints="true"
     inkscape:snap-smooth-nodes="true"
     inkscape:snap-intersection-paths="true"
     inkscape:object-paths="true"
     inkscape:snap-bbox="true"
     inkscape:bbox-paths="true"
     inkscape:bbox-nodes="true"
     inkscape:snap-bbox-edge-midpoints="true"
     inkscape:snap-bbox-midpoints="true"
     inkscape:snap-global="true"
     inkscape:zoom="22.627417"
     inkscape:cx="13.717096"
     inkscape:cy="16.41669"
     inkscape:window-x="125"
     inkscape:window-y="1"
     inkscape:window-maximized="0"
     inkscape:current-layer="svg4">
    <inkscape:grid
       type="xygrid"
       id="grid817" />
    <inkscape:grid
       type="xygrid"
       id="grid4508" />
  </sodipodi:namedview>
  <path
     style="fill:#000000;fill-opacity:1;stroke:none;stroke-width:1.84191394;stroke-linecap:square;stroke-linejoin:miter;stroke-miterlimit:4;stroke-dasharray:none;stroke-dashoffset:0;stroke-opacity:1"
     d="M 6,5 C 5.4460002,5 5,5.4460002 5,6 v 17 c 0,0.554 0.4460002,1 1,1 h 12 c 0.554,0 1,-0.446 1,-1 V 18 H 12.5 C 12.223,18 12,17.777 12,17.5 v -1 C 12,16.223 12.223,16 12.5,16 H 19 c 0.006,-1.544424 -0.0034,-3.783449 0,-5 H 14.166016 C 13.519682,11 12.962358,10.480303 12.966797,9.8339844 L 13,5 C 11.042612,5.0252228 8.3407241,5 6,5 Z"
     id="rect4540"
     inkscape:connector-curvature="0"
     sodipodi:nodetypes="cssssscssssccsscc" />
  <path
     style="fill:#000000;stroke:none;stroke-width:1px;stroke-linecap:butt;stroke-linejoin:miter;stroke-opacity:1"
     d="m 14,5 v 5 h 5 C 19,9.5 19,9.5 18.5,9 L 15,5.5 C 14.5,5 14.5,5 14,5 Z"
     id="path4549"
     inkscape:connector-curvature="0"
     sodipodi:nodetypes="cccccc" />
  <path
     style="fill:#000000;stroke:none;stroke-width:1px;stroke-linecap:butt;stroke-linejoin:miter;stroke-opacity:1"
     d="M 21.232422 13 A 0.25 0.25 0 0 0 21 13.25 A 0.25 0.25 0 0 0 21 13.265625 L 21 16 L 19 16 L 19 18 L 21 18 L 21 20.75 A 0.25 0.25 0 0 0 21.248047 21 A 0.25 0.25 0 0 0 21.445312 20.90625 L 25 17 L 21.445312 13.095703 A 0.25 0.25 0 0 0 21.4375 13.085938 L 21.429688 13.076172 A 0.25 0.25 0 0 0 21.417969 13.064453 A 0.25 0.25 0 0 0 21.25 13 A 0.25 0.25 0 0 0 21.232422 13 z "
     id="path4553" />
</svg>
